<?xml version="1.0" encoding="utf-8"?>
<!-- Generator: Adobe Illustrator 25.2.1, SVG Export Plug-In . SVG Version: 6.00 Build 0)  -->
<svg version="1.1" id="Layer_1" xmlns="http://www.w3.org/2000/svg" xmlns:xlink="http://www.w3.org/1999/xlink" x="0px" y="0px"
	 viewBox="0 0 949 256" style="enable-background:new 0 0 949 256;" xml:space="preserve">
<style type="text/css">
	.st0{fill:none;}
	.st1{fill:#AAFF0D;}
	.st2{font-family:'Apple-Chancery';}
	.st3{font-size:177px;}
	.st4{fill:#F24738;}
	.st5{fill:#A67968;}
</style>
<g>
	<rect x="304" y="43" class="st0" width="611" height="170"/>
	<text transform="matrix(1 0 0 1 303.999 196.1035)" class="st1 st2 st3">Qisland</text>
	<rect x="304" y="43" class="st0" width="611" height="170"/>
	<text transform="matrix(1 0 0 1 303.999 196.1035)" class="st2 st3">Qisland</text>
</g>
<path class="st4" d="M171.1,122.1c-11.7-21.1-46-25.8-46-25.8s15.8,17.6-4.4,31.6c-12.8,8.8-17.8,20.2-12.4,32.7
	c4.2,9.6,13.1,13.4,22.6,14.9c-2.5-4.7-3.1-11.6-1.3-18.6c0.2-0.7,0.4-1.4,0.6-2.1c2.7,4.1,7.1,6.4,11.4,5.4
	c5.9-1.4,9.3-8.5,7.7-15.8c-0.4-1.6-1-3.1-1.8-4.5c0.2,0.1,0.5,0.1,0.7,0.2c7.3,2.1,10.9,13.1,7.9,24.5c-0.9,3.5-2.4,6.8-4.4,9.7
	c12.6-4.1,21-14.2,23.3-23.3C177.7,141.5,175.8,130.5,171.1,122.1z"/>
<path class="st5" d="M243,204.2l-25.3-20.9c8.8-13.7,14-30,14-47.4c0-49-40.5-88.8-90.4-88.8s-90.4,39.8-90.4,88.8
	c0,49,40.5,88.8,90.4,88.8c19.4,0,37.4-6,52.1-16.2l27,22.2c0,0,4,3.4,7.4-0.6l16.1-18.7C243.7,211.4,247,207.4,243,204.2L243,204.2
	z M196.8,135.9c0,30.1-24.9,54.6-55.6,54.6c-30.7,0-55.6-24.4-55.6-54.6c0-30.1,24.9-54.6,55.6-54.6
	C171.9,81.3,196.8,105.7,196.8,135.9z"/>
</svg>
